<svg width="50" height="50" viewBox="0 0 50 50" fill="none" xmlns="http://www.w3.org/2000/svg">
  <rect width="50" height="50" rx="8" fill="white"/>
  <path d="M15 12h20a3 3 0 0 1 3 3v20a3 3 0 0 1-3 3H15a3 3 0 0 1-3-3V15a3 3 0 0 1 3-3zm0 2a1 1 0 0 0-1 1v20a1 1 0 0 0 1 1h20a1 1 0 0 0 1-1V15a1 1 0 0 0-1-1H15zm3.5 5.5h3V35h-3V17.5zm1.5-2a1.5 1.5 0 1 1 0-3 1.5 1.5 0 0 1 0 3zm6.5 2h2.8v2.4h.04c.39-.74 1.34-1.52 2.76-1.52 2.95 0 3.5 1.94 3.5 4.46V35h-3v-7.2c0-1.72-.03-3.94-2.4-3.94-2.4 0-2.77 1.87-2.77 3.8V35h-3V17.5h2.97v2.4z" fill="#0A66C2"/>
</svg>
